<svg width="128" height="128" viewBox="0 0 128 128" xmlns="http://www.w3.org/2000/svg" role="img" aria-labelledby="title desc">
  <title id="title">MFinder Icon</title>
  <desc id="desc">Rounded square with gradient background, stylised M letter and radar sweep motif.</desc>
  <defs>
    <linearGradient id="bgGradient" x1="0" y1="0" x2="1" y2="1">
      <stop offset="0%" stop-color="#142c4f"/>
      <stop offset="50%" stop-color="#1d4d7a"/>
      <stop offset="100%" stop-color="#1a7bb8"/>
    </linearGradient>
    <linearGradient id="edgeGradient" x1="0" y1="0" x2="0" y2="1">
      <stop offset="0%" stop-color="#3ad1ff" stop-opacity="0.9"/>
      <stop offset="100%" stop-color="#0e1f33" stop-opacity="0.8"/>
    </linearGradient>
    <radialGradient id="innerGlow" cx="50%" cy="45%" r="60%">
      <stop offset="0%" stop-color="#76ffff" stop-opacity="0.25"/>
      <stop offset="60%" stop-color="#0f2038" stop-opacity="0"/>
      <stop offset="100%" stop-color="#071427" stop-opacity="0.4"/>
    </radialGradient>
    <linearGradient id="mGradient" x1="0" y1="0" x2="1" y2="1">
      <stop offset="0%" stop-color="#ffffff"/>
      <stop offset="45%" stop-color="#d7ecff"/>
      <stop offset="100%" stop-color="#8bd9ff"/>
    </linearGradient>
    <linearGradient id="sweepGradient" x1="0" y1="0" x2="1" y2="0">
      <stop offset="0%" stop-color="#7df7ff" stop-opacity="0.9"/>
      <stop offset="70%" stop-color="#7df7ff" stop-opacity="0"/>
    </linearGradient>
    <filter id="softShadow" x="-20%" y="-20%" width="140%" height="140%">
      <feDropShadow dx="0" dy="4" stdDeviation="4" flood-color="#031124" flood-opacity="0.55"/>
    </filter>
  </defs>

  <!-- Background -->
  <rect x="8" y="8" width="112" height="112" rx="28" fill="url(#bgGradient)" stroke="url(#edgeGradient)" stroke-width="2" filter="url(#softShadow)"/>
  <rect x="16" y="18" width="96" height="92" rx="24" fill="url(#innerGlow)" opacity="0.75"/>

  <!-- Radar rings -->
  <circle cx="64" cy="64" r="36" stroke="#73d4ff" stroke-width="1.6" stroke-opacity="0.3" fill="none"/>
  <circle cx="64" cy="64" r="24" stroke="#b0f2ff" stroke-width="1.4" stroke-opacity="0.22" fill="none"/>

  <!-- Radar sweep -->
  <path d="M64 28 A36 36 0 0 1 104 68 L64 64 Z" fill="url(#sweepGradient)" opacity="0.55"/>
  <circle cx="98" cy="62" r="5" fill="#7df7ff" stroke="#ffffff" stroke-width="1.8"/>

  <!-- Stylised M -->
  <path d="M38 88 L38 42 C38 39 39.8 36 42.4 36 H50 C52.1 36 54.1 37 55.3 38.8 L64 52.2 L72.7 38.8 C73.9 37 75.9 36 78 36 H85.6 C88.2 36 90 39 90 42 V88 H79.5 V49.7 L69.2 66.9 C67.9 69 65.7 70.3 63.4 70.3 C61.1 70.3 58.9 69 57.6 66.9 L47.4 49.5 V88 Z" fill="url(#mGradient)" stroke="#e9f7ff" stroke-width="1" stroke-linejoin="round"/>

  <!-- Data pulses -->
  <circle cx="48" cy="96" r="4" fill="#7df7ff" opacity="0.85"/>
  <circle cx="64" cy="100" r="3" fill="#9cecff" opacity="0.75"/>
  <circle cx="80" cy="96" r="4" fill="#40c8ff" opacity="0.85"/>
  <path d="M48 96 Q64 88 80 96" fill="none" stroke="#46d9ff" stroke-width="1.6" stroke-linecap="round" stroke-opacity="0.55"/>
</svg>
